<?xml version="1.0" encoding="UTF-8"?> <svg xmlns="http://www.w3.org/2000/svg" id="a" viewBox="0 0 750 500"><defs><style>.c{opacity:.8;}.c,.d,.e,.f,.g,.h{fill:none;}.c,.d,.e,.f,.i{stroke-linecap:round;stroke-linejoin:round;}.c,.d,.j{stroke:#fff;}.c,.k,.l,.m,.n,.o,.p{isolation:isolate;}.q,.k,.l,.i,.o,.j{fill:#fff;}.k{opacity:.5;}.l,.r,.n{opacity:.1;}.e,.f,.h,.i{stroke:#1a2e35;}.m{opacity:.3;}.f{stroke-width:1.18px;}.g{stroke:#69f;}.g,.h,.j{stroke-miterlimit:10;}.s,.p{fill:#69f;}.t{fill:#5ae4a7;}.u{fill:#66f;}.v{fill:#afafaf;}.w{fill:#252525;}.o{opacity:.4;}.p{opacity:.05;}.x{opacity:.25;}.y{fill:#1a2e35;}</style></defs><rect class="p" width="750" height="500"></rect><g><g class="r"><path class="s" d="M469.09,35.51c-24.61,14.08-41.96,37.76-63.01,56.76-25.99,23.46-58.18,39.98-92.4,47.39-28.15,6.1-57.65,6.18-84.83,15.73-52.97,18.6-89.33,73.81-90.29,129.94-.96,56.13,31.02,110.51,77.95,141.31,15.94,10.46,33.49,18.46,51.84,23.62,34.52,9.72,71.12,9.29,106.79,5.57,61.61-6.42,126.2-41.4,165.03-90.73,17.32-22,31.94-46.11,43.59-71.57,19.13-41.81,30.27-87.32,32.17-133.27,1.64-39.49-.03-83.24-31.32-112.01-31.22-28.7-78.79-33.75-115.51-12.74Z"></path></g><g><path class="q" d="M439.1,50.65V183.95c0,5.58-4.52,10.1-10.1,10.1H191.19c-5.58,0-10.1-4.52-10.1-10.1V50.65c0-5.58,4.52-10.1,10.1-10.1h237.81c5.58,0,10.1,4.52,10.1,10.1Z"></path><path class="t" d="M439.1,50.65v4H181.1v-4c0-5.58,4.52-10.1,10.1-10.1h237.81c5.58,0,10.1,4.52,10.1,10.1Z"></path><path class="e" d="M439.1,50.65V183.95c0,5.58-4.52,10.1-10.1,10.1H191.19c-5.58,0-10.1-4.52-10.1-10.1V50.65c0-5.58,4.52-10.1,10.1-10.1h237.81c5.58,0,10.1,4.52,10.1,10.1Z"></path><path class="u" d="M439.1,50.65v4H181.1v-4c0-5.58,4.52-10.1,10.1-10.1h237.81c5.58,0,10.1,4.52,10.1,10.1Z"></path><path class="j" d="M210.07,47.6c0,1.42-1.15,2.58-2.58,2.58s-2.58-1.15-2.58-2.58,1.15-2.58,2.58-2.58,2.58,1.15,2.58,2.58Z"></path><path class="j" d="M223.55,47.6c0,1.42-1.15,2.58-2.58,2.58s-2.58-1.15-2.58-2.58,1.15-2.58,2.58-2.58,2.58,1.15,2.58,2.58Z"></path><circle class="j" cx="234.45" cy="47.6" r="2.58"></circle><g><path class="e" d="M273.97,109.23h-73.89c-2.04,0-3.69-1.65-3.69-3.69v-36.03c0-2.04,1.65-3.69,3.69-3.69h73.89c2.04,0,3.69,1.65,3.69,3.69v36.03c0,2.04-1.65,3.69-3.69,3.69Z"></path><g><line class="e" x1="201.17" y1="103.77" x2="271.64" y2="103.77"></line><rect class="u" x="206.4" y="95.48" width="8.18" height="8.18"></rect><rect class="u" x="218.37" y="84.73" width="8.18" height="19.04"></rect><rect class="u" x="231.85" y="88.01" width="8.18" height="15.96"></rect><rect class="u" x="246.01" y="72.12" width="8.18" height="31.3"></rect><rect class="u" x="260.18" y="72.36" width="8.18" height="31.3"></rect></g></g><g><circle class="s" cx="378.41" cy="88.62" r="22.86"></circle><path class="q" d="M380.29,102.88v2.34h-3.83v-2.34c-3.24-.81-5.32-3.53-5.32-7.11v-1.06l4.34-.47v1.11c0,2.17,1.11,3.49,2.89,3.49s2.89-1.11,2.89-2.85c0-2.09-1.96-3.88-4.26-5.79-2.73-2.26-5.45-4.94-5.45-8.73s1.79-6.34,4.9-7.11v-2.34h3.83v2.34c3.15,.72,4.98,3.36,4.98,7.15v.77l-4.34,.47v-.85c0-2.3-.89-3.49-2.47-3.49s-2.47,.98-2.47,2.85c0,2.09,2,3.83,4.26,5.79,2.68,2.3,5.45,4.94,5.45,8.73,0,3.62-2.13,6.34-5.41,7.11Z"></path></g><g><g><line class="e" x1="194.49" y1="131.41" x2="201.17" y2="131.41"></line><line class="e" x1="194.49" y1="144.32" x2="201.17" y2="144.32"></line><line class="e" x1="194.49" y1="157.23" x2="201.17" y2="157.23"></line><line class="e" x1="194.49" y1="170.13" x2="201.17" y2="170.13"></line></g><g><line class="e" x1="215.89" y1="179.88" x2="215.89" y2="174.7"></line><line class="e" x1="226.47" y1="179.88" x2="226.47" y2="174.7"></line><line class="e" x1="237.06" y1="179.88" x2="237.06" y2="174.7"></line><line class="e" x1="247.64" y1="179.88" x2="247.64" y2="174.7"></line><line class="e" x1="258.22" y1="179.88" x2="258.22" y2="174.7"></line><line class="e" x1="268.8" y1="179.88" x2="268.8" y2="174.7"></line><line class="e" x1="279.39" y1="179.88" x2="279.39" y2="174.7"></line><line class="e" x1="289.97" y1="179.88" x2="289.97" y2="174.7"></line><line class="e" x1="300.55" y1="179.88" x2="300.55" y2="174.7"></line><line class="e" x1="311.14" y1="179.88" x2="311.14" y2="174.7"></line><line class="e" x1="321.72" y1="179.88" x2="321.72" y2="174.7"></line><line class="e" x1="332.3" y1="179.88" x2="332.3" y2="174.7"></line><line class="e" x1="342.89" y1="179.88" x2="342.89" y2="174.7"></line><line class="e" x1="353.47" y1="179.88" x2="353.47" y2="174.7"></line><line class="e" x1="364.05" y1="179.88" x2="364.05" y2="174.7"></line><line class="e" x1="374.23" y1="179.88" x2="374.23" y2="174.7"></line><line class="e" x1="384.42" y1="179.88" x2="384.42" y2="174.7"></line><line class="e" x1="394.6" y1="179.88" x2="394.6" y2="174.7"></line></g><path class="g" d="M421.54,123.51v50.15c0,3.43-3.5,6.22-7.81,6.22H202.3c-2.87,0-5.38-1.23-6.73-3.07-.68-.92-1.08-2-1.08-3.15v-50.15c0-3.43,3.5-6.22,7.81-6.22h211.42c4.32,0,7.81,2.78,7.81,6.22Z"></path><g><path class="w" d="M357.19,26.39l-67.49,90.91-25.81,34.77-28.19-17.95-34.49,45.77h-.5c-2.28,0-4.28-1.23-5.36-3.07l38.76-51.45,28.17,17.93,19.3-26.01L351.95,22.51l5.24,3.88Z"></path><polygon class="w" points="340.07 27.54 364.88 12.5 358.01 38.51 353.64 26.48 340.07 27.54"></polygon></g></g></g><g><g><polyline class="e" points="574.8 313.77 178.11 313.77 133.65 353.3"></polyline><g><line class="e" x1="178.36" y1="286.09" x2="178.36" y2="209.21"></line><line class="e" x1="178.36" y1="309.31" x2="178.36" y2="294.44"></line></g></g><g id="b"><path class="s" d="M550.93,126.75s0-4.64-6.51-11.15-10.68-10.22-10.68-10.22c0,0-3.25,10.68,2.78,17.19,4.44,4.59,9.26,8.79,14.41,12.57v-8.39Z"></path><path class="s" d="M541.49,155.77s0-4.65-6.51-11.15c-6.51-6.51-10.68-10.22-10.68-10.22,0,0-3.25,10.68,2.78,17.19,4.44,4.58,9.26,8.79,14.41,12.57v-8.39Z"></path><path class="u" d="M550.52,134.67s.49-4.62,7.65-10.4c7.16-5.78,11.7-9.03,11.7-9.03,0,0,2.11,11-4.59,16.79-4.9,4.08-10.13,7.75-15.65,10.96l.89-8.31Z"></path><path class="u" d="M539.11,168.93s.97-4.54,8.69-9.54c7.72-5,12.57-7.76,12.57-7.76,0,0,.94,11.13-6.29,16.23-5.3,3.54-10.89,6.63-16.71,9.24l1.73-8.17Z"></path><path class="u" d="M541.26,206.29s0-4.65,6.5-11.14,10.69-10.22,10.69-10.22c0,0,3.25,10.69-2.79,17.19-4.44,4.59-9.25,8.79-14.4,12.57v-8.4h0Z"></path><path class="s" d="M541.15,215.41s.66-4.6-4.86-11.96c-5.52-7.36-9.12-11.64-9.12-11.64,0,0-4.72,10.11,.32,17.42,3.75,5.16,7.92,10,12.47,14.46l1.19-8.28Z"></path><path class="u" d="M534.74,242.43s0-4.65,6.5-11.14,10.69-10.22,10.69-10.22c0,0,3.25,10.69-2.79,17.19-4.44,4.59-9.25,8.79-14.4,12.57v-8.4h0Z"></path><path class="u" d="M539.08,266.93s-1.17-4.49,3.48-12.45c4.65-7.95,7.75-12.57,7.75-12.57,0,0,5.85,9.52,1.66,17.34-3.14,5.55-6.74,10.83-10.76,15.78l-2.13-8.1Z"></path><path class="f" d="M551.52,125.6c-.33,4.84-.93,9.65-1.78,14.42-2.57,13.28-9,21.85-11.57,33.85s4.81,27.46,2.84,42.87-7.98,23.98-6.29,34.26c1.69,10.29,10.71,38.13,10.71,38.13"></path><line class="f" x1="550.45" y1="137.76" x2="557.46" y2="132.37"></line><line class="f" x1="550.78" y1="131.57" x2="547.84" y2="126.35"></line><path class="f" d="M538.56,173.29s5.86-4.4,11.9-8.8"></path><path class="f" d="M541.49,164.11s-4.89-9.59-10.43-15.95"></path><path class="f" d="M541.49,212.9c3.36-6.17,7.59-11.83,12.57-16.79"></path><path class="f" d="M540.35,219.42c-1.78-4.2-3.91-8.24-6.36-12.09-3.43-5.05-3.93-5.71-3.93-5.71"></path><path class="f" d="M534.74,250.97c1.48-3.69,3.25-7.27,5.28-10.69,2.03-3.17,4.32-6.17,6.84-8.97"></path><path class="f" d="M541.2,275.02s-.68-5.56,1.76-10.29c2.44-4.72,5.21-10.92,6.36-13.36"></path><path class="u" d="M508.34,188.82s-.51-2.91,2.87-7.69,5.59-7.58,5.59-7.58c0,0,3.2,6.34,.12,11.08-2.29,3.35-4.85,6.51-7.67,9.43l-.9-5.23Z"></path><path class="u" d="M517.41,205.99s-.51-2.92,2.86-7.7c3.37-4.79,5.59-7.57,5.59-7.57,0,0,3.2,6.35,.12,11.08-2.29,3.35-4.85,6.51-7.67,9.43l-.9-5.24Z"></path><path class="s" d="M509.45,193.74s-.79-2.85-5.93-5.69c-5.14-2.85-8.32-4.4-8.32-4.4,0,0-.13,7.07,4.71,10.04,3.52,2.02,7.2,3.75,11,5.16l-1.47-5.12Z"></path><path class="s" d="M520.32,213.98s-1.11-2.74-6.49-5.04c-5.38-2.29-8.74-3.49-8.74-3.49,0,0,.62,7.07,5.73,9.49,3.71,1.65,7.55,2.98,11.48,3.98l-1.98-4.94Z"></path><path class="s" d="M523.03,237.64s-.5-2.92-5.29-6.29-7.81-5.25-7.81-5.25c0,0-.88,7.07,3.61,10.48,3.28,2.38,6.76,4.49,10.39,6.29l-.9-5.23Z"></path><path class="u" d="M524.09,243.35s-.91-2.81,1.74-8.02c2.66-5.21,4.46-8.29,4.46-8.29,0,0,4.06,5.83,1.69,10.96-1.8,3.64-3.91,7.13-6.29,10.42l-1.61-5.06Z"></path><path class="u" d="M532.25,266.85s.34-2.94,4.92-6.58,7.5-5.68,7.5-5.68c0,0,1.28,6.99-3.01,10.66-3.14,2.57-6.49,4.87-10.01,6.88l.61-5.29Z"></path><path class="s" d="M531.04,259.6s-.5-2.92-5.29-6.29c-4.79-3.37-7.8-5.25-7.8-5.25,0,0-.88,7.07,3.61,10.48,3.28,2.38,6.76,4.49,10.4,6.29l-.91-5.23Z"></path><path class="s" d="M530.98,275.44s.25-2.95-3.52-7.42-6.22-7.07-6.22-7.07c0,0-2.64,6.6,.84,11.05,2.57,3.15,5.4,6.07,8.46,8.75l.45-5.3Z"></path><path class="f" d="M507.84,188.13c.73,3,1.63,5.96,2.69,8.86,3.05,8.05,8.01,12.72,10.92,19.97s0,17.74,2.88,27.18c2.88,9.45,7.61,14.15,7.65,20.81,.04,6.66-2.58,25.08-2.58,25.08"></path><line class="f" x1="509.82" y1="195.66" x2="504.85" y2="193.05"></line><line class="f" x1="508.95" y1="191.82" x2="510.23" y2="188.23"></line><path class="f" d="M521.15,216.65s-4.16-2.12-8.42-4.23"></path><path class="f" d="M518.31,211.26c1.22-3.86,2.83-7.59,4.81-11.13"></path><path class="f" d="M523.61,241.81c-2.77-3.51-6.04-6.6-9.7-9.16"></path><path class="f" d="M525.03,245.78c.66-2.82,1.55-5.58,2.67-8.25,1.57-3.54,1.84-4.01,1.84-4.01"></path><path class="f" d="M531.75,269.98s3.29-4.04,5.35-5.56c1.24-.91,2.4-1.93,3.47-3.03"></path><path class="f" d="M531.97,264.95c-1.33-2.15-2.83-4.2-4.47-6.13-1.62-1.77-3.38-3.4-5.27-4.88"></path><path class="f" d="M530.53,280.74c-.16-2.26-.93-4.43-2.22-6.29-2.05-2.7-4.46-6.29-5.44-7.69"></path><path class="y" d="M552.19,321.8h-29.62c-1.22,0-2.21-.99-2.21-2.21l-4.25-32.78h42.54l-4.25,32.78c0,1.22-.99,2.21-2.21,2.21Z"></path><path class="y" d="M558.27,292.36h-42.16c-1.83,0-3.32-1.47-3.33-3.3h0c0-1.84,1.49-3.32,3.32-3.32h42.17c1.84,0,3.33,1.48,3.33,3.32h0c-.02,1.84-1.5,3.31-3.33,3.31Z"></path></g></g><g><g><path class="s" d="M463.22,161.26c0,19.43-13.55,35.72-31.73,39.9-.05,.01-.08,.01-.12,.03-1.08,.24-2.15,.45-3.25,.61-1.91,.27-3.87,.42-5.85,.42-22.63,0-40.97-18.34-40.97-40.96s17.54-40.15,39.46-40.93c.37-.03,.76-.03,1.15-.03,.12-.01,.24-.01,.36-.01,.13,0,.28,0,.42,.01,5.7,.04,11.12,1.27,16.05,3.45,14.42,6.33,24.49,20.75,24.49,37.51Z"></path><path class="o" d="M438.73,123.75c-47.3-2.46-47.52,50.04-47.52,50.04,0,0-7.22-17.13,4.57-36.12,6.58-10.61,18.06-15.3,26.91-17.37,5.7,.05,11.12,1.27,16.05,3.45Z"></path><path class="e" d="M463.22,161.26c0,19.48-13.61,35.79-31.85,39.93-2.92,.67-5.97,1.03-9.1,1.03-22.63,0-40.97-18.34-40.97-40.96s17.54-40.15,39.46-40.93c.49-.03,1-.04,1.51-.04,22.61,0,40.96,18.34,40.96,40.97Z"></path><path class="e" d="M463.22,161.26c0,19.48-13.61,35.79-31.85,39.93-.49,.03-1,.04-1.51,.04-22.63,0-40.95-18.34-40.95-40.97,0-19.48,13.61-35.79,31.85-39.93,.49-.03,1-.04,1.51-.04,22.61,0,40.95,18.34,40.95,40.97Z"></path><g><path class="h" d="M436.37,186.9l1.06,4.33-7.08,1.74-1.06-4.33c-6.35-.03-11.43-4.12-13.05-10.72l-.48-1.97,7.81-2.83,.5,2.04c.98,4.01,3.63,5.95,6.93,5.14,3.3-.81,4.85-3.36,4.06-6.58-.95-3.85-5.37-6.27-10.49-8.77-6.06-2.93-12.3-6.65-14.02-13.65-1.68-6.84,.43-12.53,5.82-15.35l-1.06-4.33,7.08-1.74,1.06,4.33c6.15-.09,10.73,3.96,12.44,10.96l.35,1.41-7.81,2.83-.39-1.57c-1.04-4.25-3.23-6.04-6.14-5.33-2.91,.71-4.12,2.93-3.27,6.39,.94,3.85,5.43,6.17,10.49,8.77,6,3.03,12.31,6.66,14.02,13.66,1.64,6.68-1.06,12.68-6.77,15.58Z"></path><path class="q" d="M436.37,186.9l1.06,4.33-7.08,1.74-1.06-4.33c-6.35-.03-11.43-4.12-13.05-10.72l-.48-1.97,7.81-2.83,.5,2.04c.98,4.01,3.63,5.95,6.93,5.14,3.3-.81,4.85-3.36,4.06-6.58-.95-3.85-5.37-6.27-10.49-8.77-6.06-2.93-12.3-6.65-14.02-13.65-1.68-6.84,.43-12.53,5.82-15.35l-1.06-4.33,7.08-1.74,1.06,4.33c6.15-.09,10.73,3.96,12.44,10.96l.35,1.41-7.81,2.83-.39-1.57c-1.04-4.25-3.23-6.04-6.14-5.33-2.91,.71-4.12,2.93-3.27,6.39,.94,3.85,5.43,6.17,10.49,8.77,6,3.03,12.31,6.66,14.02,13.66,1.64,6.68-1.06,12.68-6.77,15.58Z"></path></g><line class="e" x1="401.33" y1="196.47" x2="409.98" y2="196.07"></line><line class="e" x1="397.17" y1="193.6" x2="404.72" y2="192.96"></line><line class="e" x1="393.78" y1="190.56" x2="401.33" y2="189.92"></line><line class="e" x1="392.75" y1="132.85" x2="399.21" y2="132.85"></line><line class="e" x1="395.94" y1="129.87" x2="402.38" y2="129.58"></line><line class="e" x1="399.97" y1="126.89" x2="406.76" y2="126.25"></line><path class="m" d="M431.49,201.16s-.08,.01-.12,.03c-2.92,.67-5.97,1.03-9.1,1.03-22.63,0-40.97-18.34-40.97-40.96s17.54-40.15,39.46-40.93c.37-.03,.76-.03,1.15-.03-9.98,3.15-26.73,11.19-31.21,27.97-6.36,23.82,7.94,50.88,40.79,52.88Z"></path><path class="n" d="M463.22,161.26c0,19.43-13.55,35.72-31.73,39.9-.05,.01-.08,.01-.12,.03-1.08,.24-2.15,.45-3.25,.61l10.61-78.04c14.42,6.33,24.49,20.75,24.49,37.51Z"></path></g><g><path class="s" d="M486.45,96.79c-6.81,9.63-19.22,12.94-29.67,8.61-.05-.01-.1-.04-.15-.06-.78-.33-1.55-.7-2.31-1.12-.82-.45-1.61-.94-2.39-1.49-11.18-7.89-13.84-23.36-5.94-34.54,7.6-10.75,22.18-13.61,33.22-6.78,.19,.1,.37,.22,.55,.34,.25,.15,.51,.33,.76,.51,.39,.27,.76,.55,1.12,.85,10.21,8.09,12.43,22.9,4.81,33.67Z"></path><path class="o" d="M449.08,97.12s-4.06-11.92,1.33-20.7c6.76-11.01,17.13-16.02,31.24-13.31,0,0-7.65-5.16-20.45-1.5-12.8,3.66-19.67,21.28-12.12,35.51Z"></path><path class="e" d="M486.45,96.79c-6.8,9.62-19.22,12.93-29.67,8.6-1.68-.69-3.31-1.57-4.86-2.67-11.18-7.9-13.83-23.36-5.94-34.53,7.72-10.93,22.68-13.71,33.78-6.44,.25,.16,.51,.33,.76,.5,11.17,7.89,13.83,23.36,5.93,34.53Z"></path><path class="e" d="M486.45,96.79c-6.8,9.62-19.22,12.93-29.67,8.6-.25-.16-.51-.33-.76-.5-11.18-7.9-13.83-23.36-5.93-34.53,6.8-9.62,19.22-12.93,29.67-8.6,.25,.16,.51,.33,.76,.5,11.17,7.89,13.83,23.36,5.93,34.53Z"></path><g><path class="h" d="M464.25,100.08l-.99,2.51-4.1-1.61,.99-2.51c-3.12-2.23-4.21-6.03-2.7-9.85l.45-1.14,4.85,1.33-.47,1.18c-.92,2.32-.29,4.2,1.63,4.96,1.91,.75,3.57,.03,4.3-1.83,.88-2.23-.47-4.97-2.12-7.99-1.97-3.56-3.75-7.58-2.16-11.64,1.56-3.97,4.59-6.04,8.24-5.55l.99-2.51,4.1,1.61-.99,2.51c3.07,2.1,3.92,5.7,2.32,9.75l-.32,.82-4.85-1.33,.36-.91c.97-2.46,.51-4.11-1.17-4.78-1.69-.66-3.06,0-3.85,2.01-.88,2.23,.53,4.94,2.12,7.99,1.9,3.59,3.76,7.58,2.16,11.64-1.52,3.87-4.95,5.9-8.78,5.34Z"></path><path class="q" d="M464.25,100.08l-.99,2.51-4.1-1.61,.99-2.51c-3.12-2.23-4.21-6.03-2.7-9.85l.45-1.14,4.85,1.33-.47,1.18c-.92,2.32-.29,4.2,1.63,4.96,1.91,.75,3.57,.03,4.3-1.83,.88-2.23-.47-4.97-2.12-7.99-1.97-3.56-3.75-7.58-2.16-11.64,1.56-3.97,4.59-6.04,8.24-5.55l.99-2.51,4.1,1.61-.99,2.51c3.07,2.1,3.92,5.7,2.32,9.75l-.32,.82-4.85-1.33,.36-.91c.97-2.46,.51-4.11-1.17-4.78-1.69-.66-3.06,0-3.85,2.01-.88,2.23,.53,4.94,2.12,7.99,1.9,3.59,3.76,7.58,2.16,11.64-1.52,3.87-4.95,5.9-8.78,5.34Z"></path></g><path class="m" d="M479.22,61.41c-6.81-1.21-15.34-1.88-19.97,1.09-8.49,5.45-13.78,12.31-13.7,23.45s10.48,18.94,10.48,18.94l.61,.45c-1.63-.69-3.21-1.55-4.7-2.61-11.18-7.89-13.84-23.36-5.94-34.54,7.59-10.75,22.18-13.61,33.22-6.78Z"></path><path class="l" d="M486.45,96.79c-6.81,9.63-19.22,12.94-29.67,8.61-.05-.01-.1-.04-.15-.06-.78-.33-1.55-.7-2.31-1.12l27.33-41.1c10.21,8.09,12.43,22.9,4.8,33.67Z"></path></g></g><g><g><g><path class="t" d="M473.69,414.43c-10.56,12.54-22.97,23.53-37.05,31.98-4.41,2.64-8.92,4.99-13.53,7.06-32.05,14.41-68.57,15.34-102.73,7.06-71.81-17.4-109.92-80.79-114.75-151.16-1.3-19.02-4.22-39.56,3.49-57.65,7.64-17.94,23.28-29.31,40.9-37.14,12.79-5.69,26.61-9.52,39.16-12.64,22.86-5.67,46.55-3.08,67.77,6.99,14.77,7.01,25.29,19.13,37.71,29.42,1.32,1.09,2.64,2.17,3.97,3.24,12.54,10.1,25.76,19.38,39.5,27.76,20.88,12.73,42.25,24.75,55.59,46.14,21.27,34.08,3.31,71.19-20.04,98.94Z"></path><path class="v" d="M473.69,414.43c-10.56,12.54-22.97,23.53-37.05,31.98-4.41,2.64-8.92,4.99-13.53,7.06-32.05,14.41-68.57,15.34-102.73,7.06-71.81-17.4-109.92-80.79-114.75-151.16-1.3-19.02-4.22-39.56,3.49-57.65,7.64-17.94,23.28-29.31,40.9-37.14,12.79-5.69,26.61-9.52,39.16-12.64,22.86-5.67,46.55-3.08,67.77,6.99,14.77,7.01,25.29,19.13,37.71,29.42,1.32,1.09,2.64,2.17,3.97,3.24,12.54,10.1,25.76,19.38,39.5,27.76,20.88,12.73,42.25,24.75,55.59,46.14,21.27,34.08,3.31,71.19-20.04,98.94Z"></path><path class="h" d="M398.64,241.59c-1.33-1.07-2.65-2.15-3.97-3.24-12.42-10.28-22.94-22.41-37.7-29.42-21.22-10.07-44.92-12.66-67.77-6.99-29.85,7.41-66.89,18.82-80.07,49.78-7.7,18.09-4.79,38.62-3.48,57.64,4.84,70.37,42.93,133.77,114.74,151.17,39.08,9.47,81.24,6.88,116.27-14.12,14.07-8.44,26.48-19.44,37.03-31.98,23.35-27.74,41.32-64.86,20.05-98.94-13.34-21.38-34.71-33.4-55.6-46.13-13.75-8.38-26.96-17.67-39.5-27.77Z"></path><path class="e" d="M289.8,367.08c-5.92,1.83-11.89,4.12-17.33,6.97"></path><path class="e" d="M326.45,360.11s-11.74,.8-26.01,4.11"></path><path class="e" d="M318.79,358.3s-33.71-19.61-74.38-3.89"></path></g><path class="n" d="M473.69,414.43c-10.56,12.54-22.97,23.53-37.05,31.98-4.41,2.64-8.92,4.99-13.53,7.06-3.67-1.13-7.27-2.43-10.8-3.96-21.04-9.04-38.71-24.29-55.97-39.34-10.41-9.07-20.99-18.27-33.45-24.22-16.65-7.95-36.25-9.56-53.97-4.44,9.15-10.4,22.01-17.47,35.69-19.64-8.9-8.1-21.3-11.51-33.35-11.73-12.05-.23-18.68,1.26-30.44,3.9,3.93-7.24,14.38-13.79,22.62-13.6-8.24-.19-17.65-.74-23.43-1.66-10.65-1.72-15.4-14.23-16.99-24.88-4.4-29.31,.05-60.56,16.06-85.49,3.35-5.22,7.01-9.81,10.95-13.85,12.79-5.69,26.61-9.52,39.16-12.64,22.86-5.67,46.55-3.08,67.77,6.99,14.77,7.01,25.29,19.13,37.71,29.42,1.32,1.09,2.64,2.17,3.97,3.24,12.54,10.1,25.76,19.38,39.5,27.76,20.88,12.73,42.25,24.75,55.59,46.14,21.26,34.08,3.31,71.19-20.04,98.94Z"></path></g><path class="q" d="M485.4,413.6s9.48,7.98,19.81,14.6c13.41,.9,7.4,17.12,7.4,17.12l-11.48,7.38s-19.61-15.59-30.32-20.65c-10.7-5.06,14.59-18.45,14.59-18.45Z"></path><g><path class="m" d="M390.14,242.91s-1.84-18.2-4.77-23.31l-44.53-9.1v-3.45s1.03-6.01-8.9-9.76c-9.93-3.76-30.61,1.13-35.94,5.16-5.33,4.04-3.38,10.99-3.38,10.99,0,0-17.94,9.09-26.01,12.55-8.07,3.46-19.26,10.15-19.26,10.15,0,0-3.65,41.82-2.93,51.53s-.58,18.85,.25,24.23,1.49,8.44,7.14,13.02c5.65,4.58,10.76,11.34,25.56,4.63l-2.06-1.63,97.39-32.75,17.47-52.26Z"></path><path class="u" d="M390.14,242.91s-1.84-18.2-4.77-23.31l-44.53-9.1v-3.45s1.03-6.01-8.9-9.76c-9.93-3.76-30.61,1.13-35.94,5.16-5.33,4.04-3.38,10.99-3.38,10.99,0,0-17.94,9.09-26.01,12.55-8.07,3.46-19.26,10.15-19.26,10.15,0,0-3.65,41.82-2.93,51.53s-.58,18.85,.25,24.23,1.49,8.44,7.14,13.02c5.65,4.58,10.76,11.34,25.56,4.63l-2.06-1.63,97.39-32.75,17.47-52.26Z"></path><path class="n" d="M385.95,221.8h-18.63c-3.62,0-6.71,2.62-7.3,6.19l-9.18,55.31s-12.64,1.05-21.6,7.59c-8.95,6.54-30.98-40.07-65.8-40.09,0,0,10.02,22.89,12.24,41.17,0,0-21.76-2.37-25.37,6.15s1.64,24.48,10.84,18.3c9.2-6.17,17.82-16.51,24.02-10.03s33.61,10.03,33.61,10.03l42.27-21.23,16.39-7.71,8.51-65.67Z"></path><path class="o" d="M326.79,194.42s10.58,2.94,12.3,6.48c1.71,3.55,1.54,12.54,1.54,12.54,0,0-2.88,7.99-11.38,15.66l-7.9-15.66,.71,17.76s-14.98-2.49-21.33-7.28l-6.36-4.79s-2.73-8.99-2.35-12.07c.39-3.08,11.85-9.27,11.85-9.27l22.93-3.37Z"></path><path class="u" d="M503.02,468.19c-.29-.65,4.35-8.83,.72-17.17s-9.42-5.12-9.42-5.12c0,0-16.48-10.49-23.41-13.8-6.93-3.31-14.38-8.55-14.38-8.55l-7.32,9.86,6.76,20.94,47.04,13.85Z"></path><path class="u" d="M493.71,445.39l21.16,12.93s14.87-9.55,21.97-16.14c7.1-6.59,22.98-20.61,22.98-20.61l10.13-13.66s-7.04-8.71-18.77-1.71c-15.16,9.05-33.65,22.12-45.98,22,0,0,2.43,15.15-11.49,17.19"></path><path class="q" d="M323.2,139.73s9.61,14.53,11.35,19.23c1.75,4.71,3.16,11.67,2.8,15.01-.36,3.35-3.86,21.29-5.67,21.82l-1.7,1.93,1.09,7.6s-7.51,12.99-29.6,3.47c0,0-.86-15.17-3.55-19.92-2.68-4.76-6.7,.9-10.72-12.85-4.02-13.75,8.8-28.14,8.8-28.14l27.2-8.15Z"></path><path class="k" d="M560.82,403.67s-10.87,1.89-14.41,8.33c-3.53,6.44-10.31,18.41-12.62,24.2-2.31,5.79-21.45,19.76-21.45,19.76l2.54,2.36s15.57-9.63,24.96-18.77,30.12-32.16,30.12-32.16c0,0-1.48-1.48-9.14-3.72Z"></path><path class="k" d="M451.9,429.78l-2.68,3.62,8.27,17.17,45.53,16.37,2.11-6.67s.7-6.79-15.28-11.91-25.73-8.54-30.27-12.07c-4.54-3.54-7.68-6.5-7.68-6.5Z"></path><path class="q" d="M301.58,302.27s-13.94-2.09-20.45,9.31-5.84,16.34-5.84,16.34c0,0,9.21,8.37,21.88,7.94,12.67-.43,31.13-15.03,37.14-19.75s21.17-18.25,31.52-15.46l1.14-9.78s-1.01-4.39-9.86-3.21c-8.85,1.18-12.32,6.23-15.16,6.23s-5.55-2.74-11.32,7.05c0,0-20.11,3.57-29.04,1.32Z"></path><path class="e" d="M319.7,160.63c.29,1.83,.71,3.63,1.26,5.4,.27,.85,.58,1.72,1.18,2.38,1.07,1.17,2.77,1.43,4.34,1.66,.26,.04,.54,.09,.7,.29,.15,.18,.17,.44,.17,.67,0,1.76-.54,3.52-1.53,4.98"></path><path class="i" d="M313.13,178.58s7.32,5.74,14.93,3.59c0,0-7.18,14.21-14.93-3.59Z"></path><path class="y" d="M312.91,166.17c.21,1.58-.26,2.95-1.06,3.05-.8,.11-1.61-1.09-1.83-2.67-.21-1.58,.26-2.95,1.06-3.05,.8-.11,1.61,1.09,1.83,2.67Z"></path><path class="y" d="M328.8,163.3c.21,1.58-.26,2.95-1.06,3.05-.8,.11-1.61-1.09-1.83-2.67-.21-1.58,.26-2.95,1.06-3.05,.8-.11,1.62,1.09,1.83,2.67Z"></path><path class="e" d="M311.75,159.48s-4.27-2.2-7.3,2.51"></path><path class="e" d="M322.67,156.54s4.5-3.87,7.12,0"></path><path class="e" d="M297.25,173.99s-2.74-4.05-5.62-3.92-4.05,4.18-3.01,8.1c1.05,3.92,5.36,9.41,8.63,8.89,3.27-.52,4.7-2.61,4.7-2.61"></path><path class="e" d="M323.53,143.01c3.08,2.55,6.34,5.35,7.95,9.11,1.37,3.2,1.69,6.75,2.95,10,1.34,3.46,2.82,7.09,2.93,10.87,.1,3.44-.68,7.02-1.36,10.37-.59,2.9-1.05,5.89-2.09,8.67-1.52,4.05-4.33,6.54-8.1,8.46-2.74,1.4-7.31,3.41-10.27,1.51-1.73-1.1-4.32-4.35-6.48-7.32"></path><path class="e" d="M297.25,187.06s4.85,11.89,3.67,20.26"></path><path class="y" d="M296.01,171.99c1.3-.94,2.04-2.59,1.88-4.18-.18-1.83-1.45-3.52-1.2-5.34,.12-.89,.6-1.69,.97-2.51,1.34-3.01,1.11-6.67-.58-9.49,0,0,15.4,.72,22.63-3.87s12.72-16.33,8.35-21.94c-4.36-5.61-12.87,2.04-19.16,2.89-6.29,.85-28.74,4.42-32.32,13.1-3.57,8.67,1.87,11.74,2.04,19.99,.17,8.24,.16,23.86,12.5,22.43,0,0-4.61-5.97-1.41-12.12,2.18-2.62,6.3,1.05,6.3,1.05Z"></path><path class="y" d="M326.23,134.4s6.34,4.23,7.38,13.54c.69,6.18,11.66,18.19,3.75,25.05,0,0-1.84-7.28-2.93-10.87-1.08-3.59-2.46-10.13-4.28-12.42s-11.45-10.11-11.45-10.11l7.53-5.19Z"></path><path class="e" d="M298.68,207.06s7.6,5,21.72,5.21l1.65,18.94s-15.87-1.21-27.69-12.07c0,0-3.19-8.45-2.35-12.07,.84-3.63,8.41-7.23,8.41-7.23"></path><path class="e" d="M330.62,198.58l.45,6.74c-5.13,5.26-10.67,6.94-10.67,6.94l8.84,16.83s10.54-8.21,11.59-16.83c0,0,.09-8.84-1.74-11.36-1.83-2.52-8.54-3.71-8.54-3.71"></path><path class="c" d="M287.83,146.24c1.14-2.83,4.21-4.46,7.23-4.97,3.01-.51,6.1-.13,9.15-.21,4.19-.11,8.41-1.12,11.95-3.36s6.34-5.79,7.22-9.88"></path><path class="c" d="M280.54,145.69c1.91-5.79,8.09-9.36,14.17-9.88,3.01-.26,6.05,.1,9.06-.25,3-.35,6.12-1.59,7.69-4.17"></path><path class="e" d="M277.35,329.56c-14.64,7.6-19.87-.22-28.04-6.69-8.16-6.48-2.82-18.02-4.51-36.6-1.69-18.58,2.53-50.12,2.53-50.12,0,0,3.66-.85,13.8-7.04s31.48-15.66,31.48-15.66"></path><path class="e" d="M291.87,301.48s-2.33-7.37-8.89-7.57c-6.57-.2-16.92,2.77-24.29,16.72"></path><path class="e" d="M281.48,293.48c-.41,0-.8-.14-1.18-.28-5.37-1.95-11.33-2.21-16.85-.76"></path><path class="e" d="M259.67,246.21c11.93,13.2,17.76,30.66,23.28,47.57"></path><path class="e" d="M340.84,210.5s21.66,5.16,32.24,6.4c10.58,1.23,12.3,2.71,12.3,2.71l1.97,7.38"></path><polygon class="q" points="441.76 223.37 368 226.21 361.97 302.06 374.61 302.06 438.65 287.72 446.71 225.19 441.76 223.37"></polygon><g class="x"><polygon class="u" points="365.81 304.31 446.48 226.98 438.65 287.72 365.81 304.31"></polygon></g><polygon class="e" points="365.81 302.27 372.26 229.1 446.71 225.19 438.65 287.72 365.81 302.27"></polygon><path class="y" d="M415.33,260.64c-.5,4.45-2.88,7.84-5.32,7.57s-4-4.11-3.49-8.56c.5-4.46,2.88-7.84,5.32-7.57,2.43,.28,3.99,4.11,3.49,8.56Z"></path><path class="y" d="M438.65,287.72s34.09-.97,44.75,6.07,16.91,42.33,15.44,61.08c-1.47,18.75-14.34,61.77-14.34,61.77l-24.63-27.94s-12.13-44.12-5.52-61.4c0,0-32.72,1.84-45.59-2.21,0,0-11.54-18.89-31.32-25.14l61.21-12.23Z"></path><path class="h" d="M489.7,417.37c-10.41-9.43-20.45-22.4-23.43-27.02-11.92-18.42-28.41-36.14-45.36-49.89-13.67-11.08-16.76-29.13-33.61-38.19-27.91-14.97-52.05,14.78-61.07,20.8-9.02,6.02-24.66,12.8-24.66,12.8,0,0,5.7,21.39,22.46,23.97s33.72-9.02,41.79-3.43c8.06,5.58,13.96,30.51,40.44,45.12,21.65,11.94,51.14,23.58,66.36,31.43,3.41,1.76,5.91,3.61,7.83,4.66,5.26,2.87,10.87,6.25,16.17,9.58l18.26,11.12s18.33-10.84,25.36-20.83c.95-1.34,2.89-4.92,4.72-8.37,3.99-7.54,9-14.31,16.01-18.07,4.83-2.6,9.13-3.39,8.99-3.65-.47-.86-9.21-5.33-15.16-2.89-12.59,5.19-37.75,25.17-49.59,23.69,0,0-8.63-4.6-15.5-10.83Z"></path><path class="y" d="M489.7,417.37c-10.98,4.44-15.4,11.26-17.09,15.59-15.22-7.84-44.71-19.49-66.36-31.43-26.48-14.61-32.38-39.55-40.44-45.12-8.06-5.59-25.03,6.02-41.79,3.43s-22.45-23.98-22.45-23.98c0,0,15.63-6.78,24.65-12.79s29.83-35.78,61.07-20.8c17.25,8.27,19.94,27.1,33.61,38.19,16.95,13.75,33.43,31.47,45.36,49.89,2.98,4.61,12.99,17.62,23.43,27.02Z"></path><path class="d" d="M407.23,321.75s-8.45-17.17-22-20.5"></path><path class="e" d="M362.95,287.56c-9.32-2.03-19.55,8.27-23.86,6.34-3.2-1.43-8.47,7.05-8.47,7.05,0,0-13.64,2.11-26.19,1.32s-18.5,1.65-22.94,8.37l-6.2,16.43s16.36,14.68,33.84,6.13c17.48-8.55,40.7-34.29,56.69-34.2"></path><path class="h" d="M493.01,444.95s15.3,1.26,11.71-17.02"></path><path class="y" d="M565.09,416.64c-1.16,2.3-15.16,14.19-27.24,24.62,.04-.16,3.34-6.53,4.79-9.25,3.21-6,11.51-22.46,27.32-24.62,2.24,1.35-4.87,9.25-4.87,9.25Z"></path><path class="h" d="M559.07,403.79c-15.98,3.19-19.61,23.67-25.29,32.41-5.68,8.75-21.45,20.57-21.45,20.57"></path><path class="h" d="M503.74,451.53c2.6,4.77,1.37,10.29,0,13.75-1.15,2.91-2.51,4.93-2.51,4.93-22.63-3.72-45.25-15.88-45.25-15.88l-5.83-18.05-.93-2.89,8.78-11.83"></path><path class="y" d="M503.74,465.28c-1.15,2.91-2.51,4.93-2.51,4.93-22.63-3.72-45.25-15.88-45.25-15.88l-5.83-18.05c2.92,3.82,8.34,9.39,16.46,11.69,11.02,3.12,31.36,6.78,37.13,17.31Z"></path><polyline class="e" points="361.97 299.42 368 226.21 441.76 223.37 446.71 225.19"></polyline><path class="h" d="M504.56,436.2s10.09,1.8,17.83-4.52c7.74-6.32,20.24-20.61,20.24-20.61"></path><path class="e" d="M514.88,427.08s-2.43,3.67,0,11.03"></path><path class="e" d="M522.03,423.6s-1.95,5.48,.91,11.03"></path><path class="e" d="M530.55,418.65s-2.04,6.13,0,11.53"></path><path class="h" d="M460,420.05l-8.1,9.74s8.15,8.89,19.64,12.59,32.03,9.98,33.73,16.67"></path></g></g></g></svg> 